<svg xmlns="http://www.w3.org/2000/svg" viewBox="0 0 64 64" width="64" height="64">
  <defs>
    <linearGradient id="f" x1="0" y1="1" x2="0" y2="0">
      <stop offset="0" stop-color="#FF9A2E"/>
      <stop offset="0.55" stop-color="#FF5A1F"/>
      <stop offset="1" stop-color="#D81E2A"/>
    </linearGradient>
  </defs>
  <path fill="url(#f)" d="M34 3c2.5 9.5-4 13.5-9.2 18.6C19.4 26.8 14 33 14 41a18 18 0 0 0 36 0c0-7.4-3.7-12.4-7.2-16.6-1 3-3.2 5.2-6.4 5.2C40.7 20.4 36.6 10.6 34 3z"/>
  <path fill="#FFD24A" d="M32 31c2.2 4.2 6.4 6.6 6.4 12.4a6.4 6.4 0 0 1-12.8 0C25.6 38 30 35.4 32 31z"/>
</svg>
