<svg xmlns="http://www.w3.org/2000/svg" viewBox="0 0 1600 500" width="1600" height="500" preserveAspectRatio="xMidYMid slice">
  <defs>
    <linearGradient id="asr-bg" x1="0" y1="0" x2="1" y2="1">
      <stop offset="0" stop-color="#061A1E"/>
      <stop offset="0.48" stop-color="#0B5C66"/>
      <stop offset="1" stop-color="#FF6A2A"/>
    </linearGradient>
    <linearGradient id="asr-line" x1="0" y1="0" x2="1" y2="0">
      <stop offset="0" stop-color="#B7FFF7" stop-opacity="0.15"/>
      <stop offset="0.5" stop-color="#FFFFFF" stop-opacity="0.72"/>
      <stop offset="1" stop-color="#FFE0C4" stop-opacity="0.28"/>
    </linearGradient>
  </defs>
  <rect width="1600" height="500" fill="url(#asr-bg)"/>
  <g fill="none" stroke="#FFFFFF" stroke-width="2" opacity="0.12">
    <path d="M80 105 C 230 40, 350 170, 510 105 S 790 70, 940 150 S 1210 240, 1510 120"/>
    <path d="M0 410 C 260 330, 480 480, 720 390 S 1210 310, 1600 395"/>
  </g>
  <g fill="none" stroke="url(#asr-line)" stroke-linecap="round">
    <path stroke-width="7" d="M80 255 C 118 255, 118 180, 156 180 S 194 332, 232 332 S 270 218, 308 218 S 346 288, 384 288 S 422 246, 460 246 S 498 258, 536 258 S 574 140, 612 140 S 650 360, 688 360 S 726 205, 764 205 S 802 284, 840 284 S 878 250, 916 250 S 954 265, 992 265 S 1030 170, 1068 170 S 1106 330, 1144 330 S 1182 222, 1220 222 S 1258 278, 1296 278 S 1334 252, 1372 252 S 1410 255, 1448 255"/>
  </g>
  <g fill="#FFFFFF" opacity="0.16">
    <circle cx="1215" cy="138" r="58"/>
    <circle cx="1368" cy="162" r="34"/>
    <circle cx="1290" cy="263" r="18"/>
  </g>
  <g fill="none" stroke="#FFFFFF" stroke-width="4" opacity="0.34">
    <circle cx="1215" cy="138" r="83"/>
    <path d="M1276 198 L1346 256"/>
    <circle cx="1360" cy="268" r="24"/>
  </g>
</svg>
