<svg xmlns="http://www.w3.org/2000/svg" viewBox="0 0 1200 610" width="1200" height="610" font-family="'Space Grotesk','Inter',sans-serif"><defs><marker id="a" markerWidth="8" markerHeight="8" refX="6" refY="4" orient="auto" markerUnits="userSpaceOnUse"><path d="M1 1L6 4L1 7" fill="none" stroke="#748f94" stroke-width="1.5" stroke-linecap="round" stroke-linejoin="round"/></marker><style>.t{fill:#f6fffd;text-anchor:middle;font-weight:600;font-size:14}.n{fill:#36535b;text-anchor:middle;font-size:13}.e{fill:none;stroke:#748f94;stroke-width:2.5;marker-end:url(#a)}.b{fill:#173d49;stroke:#42bda8;stroke-width:2}.c{fill:#694331;stroke:#e68a57;stroke-width:2}</style></defs><rect width="1200" height="610" rx="20" fill="#f5faf9"/><text class="n" x="600" y="38" font-size="18" font-weight="700">OPERATOR SUPPORT PATHS</text>
  <g class="e"><path d="M600 105V145M600 210V250M600 315V365M600 315L175 405M600 315L390 405M600 315L810 405M600 315L1025 405"/></g>
  <g><rect class="b" x="395" y="55" width="410" height="55" rx="10"/><text class="t" x="600" y="88">Tensor: storage · shape · stride · offset · dtype · device</text><rect class="b" x="395" y="150" width="410" height="58" rx="10"/><text class="t" x="600" y="174">Schema: arguments · results · aliases</text><text class="t" x="600" y="194">mutation · errors</text><rect class="b" x="395" y="255" width="410" height="58" rx="10"/><text class="t" x="600" y="279">Dispatch key set: backend · autograd</text><text class="t" x="600" y="299">autocast · functionalization · modes</text></g>
  <g><rect class="b" x="65" y="405" width="220" height="66" rx="10"/><text class="t" x="175" y="433">Native kernel or</text><text class="t" x="175" y="453">vendor library</text><rect class="b" x="300" y="405" width="180" height="66" rx="10"/><text class="t" x="390" y="433">Composite or</text><text class="t" x="390" y="453">decomposition</text><rect class="c" x="720" y="405" width="180" height="66" rx="10"/><text class="t" x="810" y="433">Host fallback</text><text class="t" x="810" y="453">with accounting</text><rect class="c" x="915" y="405" width="220" height="66" rx="10"/><text class="t" x="1025" y="433">Explicit unsupported</text><text class="t" x="1025" y="453">case</text></g>
  <g><rect x="475" y="390" width="250" height="98" rx="12" fill="#fff" stroke="#42bda8" stroke-width="2"/><text class="n" x="600" y="419" font-weight="700">METADATA / FAKE PATH</text><text class="n" x="600" y="447">shape · dtype · stride · alias</text><text class="n" x="600" y="470">symbolic dimensions</text></g><text class="n" x="600" y="552">Autograd, AMP, compilation, export, and profiling share the operator schema.</text><text class="n" x="600" y="576">Device-function registration covers eager execution.</text></svg>
