<svg xmlns="http://www.w3.org/2000/svg" viewBox="0 0 1280 620" width="1280" height="620" font-family="'Space Grotesk','Inter',sans-serif"><defs><marker id="a" markerWidth="8" markerHeight="8" refX="6" refY="4" orient="auto" markerUnits="userSpaceOnUse"><path d="M1 1L6 4L1 7" fill="none" stroke="#718d92" stroke-width="1.5" stroke-linecap="round" stroke-linejoin="round"/></marker><style>.t{fill:#f6fffd;text-anchor:middle;font-weight:600;font-size:13}.n{fill:#36535b;text-anchor:middle;font-size:12}.e{fill:none;stroke:#718d92;stroke-width:2.5;marker-end:url(#a)}.b{fill:#173d49;stroke:#42bda8;stroke-width:2}.c{fill:#694331;stroke:#e68a57;stroke-width:2}</style></defs><rect width="1280" height="620" rx="20" fill="#f5faf9"/><text class="n" x="640" y="36" font-size="18" font-weight="700">QUALIFICATION, RELEASE, AND INCIDENT RESPONSE</text>
  <g class="e"><path d="M160 160H225M355 160h65M550 160h65M745 160h65M940 160h65"/><path d="M1070 195V300H965M875 340H770M680 340H575M485 340H380M290 340H185M120 375v100H300M440 510h90M670 510h90M900 510h120"/></g>
  <g><rect class="c" x="35" y="120" width="125" height="75" rx="10"/><text class="t" x="97" y="151">0 · runtime</text><text class="t" x="97" y="173">health</text><rect class="b" x="225" y="120" width="130" height="75" rx="10"/><text class="t" x="290" y="151">1 · tensor</text><text class="t" x="290" y="173">semantics</text><rect class="b" x="420" y="120" width="130" height="75" rx="10"/><text class="t" x="485" y="151">2 · eager</text><text class="t" x="485" y="173">workloads</text><rect class="b" x="615" y="120" width="130" height="75" rx="10"/><text class="t" x="680" y="151">3 · compiled</text><text class="t" x="680" y="173">coverage</text><rect class="b" x="810" y="120" width="130" height="75" rx="10"/><text class="t" x="875" y="151">4 · domain</text><text class="t" x="875" y="173">qualification</text><rect class="b" x="1005" y="120" width="130" height="75" rx="10"/><text class="t" x="1070" y="151">5 · distributed</text><text class="t" x="1070" y="173">systems</text>
    <rect class="b" x="900" y="300" width="130" height="75" rx="10"/><text class="t" x="965" y="331">6 · perf</text><text class="t" x="965" y="353">and power</text><rect class="c" x="705" y="300" width="130" height="75" rx="10"/><text class="t" x="770" y="331">7 · release</text><text class="t" x="770" y="353">readiness</text><rect class="c" x="510" y="300" width="130" height="75" rx="10"/><text class="t" x="575" y="331">packages +</text><text class="t" x="575" y="353">compatibility</text><rect class="c" x="315" y="300" width="130" height="75" rx="10"/><text class="t" x="380" y="331">field</text><text class="t" x="380" y="353">telemetry</text><rect class="c" x="120" y="300" width="130" height="75" rx="10"/><text class="t" x="185" y="331">incident</text><text class="t" x="185" y="353">reproducer</text>
    <rect class="b" x="300" y="470" width="140" height="78" rx="10"/><text class="t" x="370" y="502">software fix</text><text class="t" x="370" y="525">and regression</text><rect class="b" x="530" y="470" width="140" height="78" rx="10"/><text class="t" x="600" y="502">compiler /</text><text class="t" x="600" y="525">kernel change</text><rect class="c" x="760" y="470" width="140" height="78" rx="10"/><text class="t" x="830" y="502">firmware /</text><text class="t" x="830" y="525">driver change</text><rect class="c" x="1020" y="470" width="180" height="78" rx="10"/><text class="t" x="1110" y="502">next hardware</text><text class="t" x="1110" y="525">architecture cycle</text></g><text class="n" x="640" y="590">Each production incident adds a regression test at the lowest applicable layer.</text></svg>
