<svg xmlns="http://www.w3.org/2000/svg" viewBox="0 0 1240 620" width="1240" height="620" font-family="'Space Grotesk','Inter',sans-serif"><defs><style>.t{fill:#f6fffd;text-anchor:middle;font-weight:600;font-size:14}.n{fill:#36535b;text-anchor:middle;font-size:13}.e{fill:none;stroke:#748f94;stroke-width:2}.b{fill:#173d49;stroke:#42bda8;stroke-width:2}.c{fill:#694331;stroke:#e68a57;stroke-width:2}</style></defs><rect width="1240" height="620" rx="20" fill="#f5faf9"/><text class="n" x="620" y="38" font-size="18" font-weight="700">PARALLEL STRATEGY AND PHYSICAL TRAFFIC</text>
  <g class="e"><path d="M620 105V140M620 205V240M620 305V340M620 405V448"/><path d="M450 500H275M790 500h175"/></g>
  <g><rect class="b" x="315" y="55" width="610" height="52" rx="10"/><text class="t" x="620" y="86">data · tensor · pipeline · expert parallel strategy</text><rect class="b" x="315" y="145" width="610" height="58" rx="10"/><text class="t" x="620" y="170">DeviceMesh + DTensor placements</text><text class="t" x="620" y="190">shard · replicate · partial · redistribute</text><rect class="b" x="315" y="245" width="610" height="58" rx="10"/><text class="t" x="620" y="270">ProcessGroup and async work</text><text class="t" x="620" y="290">ordering · progress · timeout · abort</text><rect class="b" x="315" y="345" width="610" height="58" rx="10"/><text class="t" x="620" y="370">Collective algorithms</text><text class="t" x="620" y="390">ring · tree · hierarchy · channels</text><rect class="c" x="450" y="448" width="340" height="100" rx="14"/><text class="t" x="620" y="477">DMA · peer memory · NIC</text><text class="t" x="620" y="500">registration · completion · isolation</text><text class="t" x="620" y="523">topology and link health</text></g>
  <g><rect class="c" x="65" y="455" width="210" height="92" rx="12"/><text class="t" x="170" y="486">SCALE-UP</text><text class="t" x="170" y="511">package · board · node</text><text class="t" x="170" y="531">peer fabric</text><rect class="c" x="965" y="455" width="210" height="92" rx="12"/><text class="t" x="1070" y="486">SCALE-OUT</text><text class="t" x="1070" y="511">NIC · switch · route</text><text class="t" x="1070" y="531">congestion and failure</text></g><text class="n" x="620" y="590">The planner needs link distances, topology, and failure state.</text></svg>
