<svg xmlns="http://www.w3.org/2000/svg" viewBox="0 0 1200 600" width="1200" height="600" font-family="'Space Grotesk','Inter',sans-serif"><defs><marker id="a" markerWidth="8" markerHeight="8" refX="6" refY="4" orient="auto" markerUnits="userSpaceOnUse"><path d="M1 1L6 4L1 7" fill="none" stroke="#718b91" stroke-width="1.5" stroke-linecap="round" stroke-linejoin="round"/></marker><style>.t{fill:#f5fffc;text-anchor:middle;font-weight:600;font-size:14}.n{fill:#36535b;text-anchor:middle;font-size:13}.e{fill:none;stroke:#718b91;stroke-width:3;marker-end:url(#a)}.b{fill:#173d49;stroke:#3dbba6;stroke-width:2}.c{fill:#684332;stroke:#e88956;stroke-width:2}</style></defs><rect width="1200" height="600" rx="20" fill="#f5faf9"/><text class="n" x="600" y="38" font-size="18" font-weight="700">RUNTIME LAUNCH PATH</text>
  <g class="e"><path d="M600 102V145M600 207V250M600 312V355M600 417V460"/></g>
  <g><rect class="b" x="425" y="55" width="350" height="55" rx="10"/><text class="t" x="600" y="88">Framework process</text><rect class="b" x="425" y="150" width="350" height="55" rx="10"/><text class="t" x="600" y="183">User runtime and compiler loader</text><rect class="b" x="425" y="255" width="350" height="55" rx="10"/><text class="t" x="600" y="288">Kernel driver and OS protection</text><rect class="c" x="425" y="360" width="350" height="55" rx="10"/><text class="t" x="600" y="393">Device firmware and scheduler</text><rect class="c" x="425" y="465" width="350" height="55" rx="10"/><text class="t" x="600" y="498">Queues, engines, memory, links</text></g>
  <g><rect x="55" y="138" width="270" height="86" rx="12" fill="#fff" stroke="#3dbba6" stroke-width="2"/><text class="n" x="190" y="168" font-weight="700">MEMORY POLICY</text><text class="n" x="190" y="194">allocate · pin · map · migrate · share</text><path class="e" d="M325 181H410"/><rect x="55" y="360" width="270" height="86" rx="12" fill="#fff" stroke="#e88956" stroke-width="2"/><text class="n" x="190" y="390" font-weight="700">FAULT AND RESET</text><text class="n" x="190" y="416">operation · queue · context · device</text><path class="e" d="M325 403H410"/>
    <rect x="875" y="138" width="270" height="86" rx="12" fill="#fff" stroke="#3dbba6" stroke-width="2"/><text class="n" x="1010" y="168" font-weight="700">COMMAND MODEL</text><text class="n" x="1010" y="194">streams · events · capture · replay</text><path class="e" d="M790 181H875"/><rect x="875" y="360" width="270" height="86" rx="12" fill="#fff" stroke="#e88956" stroke-width="2"/><text class="n" x="1010" y="390" font-weight="700">OBSERVABILITY</text><text class="n" x="1010" y="416">trace · counters · health · identity</text><path class="e" d="M790 403H875"/></g><text class="n" x="600" y="567">Asynchronous errors may surface after the originating host call returns.</text></svg>
