<svg xmlns="http://www.w3.org/2000/svg" viewBox="0 0 1280 600" width="1280" height="600" font-family="'Space Grotesk','Inter',sans-serif"><defs><marker id="a" markerWidth="8" markerHeight="8" refX="6" refY="4" orient="auto" markerUnits="userSpaceOnUse"><path d="M1 1L6 4L1 7" fill="none" stroke="#718c92" stroke-width="1.5" stroke-linecap="round" stroke-linejoin="round"/></marker><style>.t{fill:#f5fffc;text-anchor:middle;font-weight:600;font-size:13}.n{fill:#36535b;text-anchor:middle;font-size:12}.e{fill:none;stroke:#718c92;stroke-width:2.5;marker-end:url(#a)}.b{fill:#173d49;stroke:#41bba6;stroke-width:2}.c{fill:#6b4331;stroke:#e58a57;stroke-width:2}</style></defs><rect width="1280" height="600" rx="20" fill="#f5faf9"/><text class="n" x="640" y="36" font-size="18" font-weight="700">PYTHON TO DEVICE CODE</text>
  <g class="e"><path d="M184 130H240M390 130h55M595 130h55M800 130h55M1005 130h55"/><path d="M1135 165V260H1010M925 310H820M735 310H630M545 310H440M355 310H250M175 345v85H310M400 470h65M555 470h65M710 470h65M865 470h65"/></g>
  <g><rect class="b" x="45" y="95" width="140" height="70" rx="10"/><text class="t" x="115" y="124">Python</text><text class="t" x="115" y="145">program</text><rect class="b" x="240" y="95" width="150" height="70" rx="10"/><text class="t" x="315" y="124">Dynamo</text><text class="t" x="315" y="145">capture + guards</text><rect class="b" x="445" y="95" width="150" height="70" rx="10"/><text class="t" x="520" y="124">FX graph</text><text class="t" x="520" y="145">graph breaks</text><rect class="b" x="650" y="95" width="150" height="70" rx="10"/><text class="t" x="725" y="124">Functionalize</text><text class="t" x="725" y="145">decompose + fake</text><rect class="b" x="855" y="95" width="150" height="70" rx="10"/><text class="t" x="930" y="124">AOTAutograd</text><text class="t" x="930" y="145">forward + backward</text><rect class="b" x="1060" y="95" width="150" height="70" rx="10"/><text class="t" x="1135" y="124">Inductor /</text><text class="t" x="1135" y="145">backend IR</text>
    <rect class="b" x="925" y="275" width="170" height="70" rx="10"/><text class="t" x="1010" y="304">Fusion + layout</text><text class="t" x="1010" y="325">schedule + memory</text><rect class="b" x="735" y="275" width="170" height="70" rx="10"/><text class="t" x="820" y="304">Tiles + lanes</text><text class="t" x="820" y="325">memory spaces</text><rect class="c" x="545" y="275" width="170" height="70" rx="10"/><text class="t" x="630" y="304">Target legality</text><text class="t" x="630" y="325">dialect conversion</text><rect class="c" x="355" y="275" width="170" height="70" rx="10"/><text class="t" x="440" y="304">LLVM / target</text><text class="t" x="440" y="325">instruction selection</text><rect class="c" x="90" y="275" width="160" height="70" rx="10"/><text class="t" x="170" y="304">Machine code</text><text class="t" x="170" y="325">and metadata</text>
    <rect class="b" x="310" y="430" width="90" height="80" rx="10"/><text class="t" x="355" y="464">Load</text><text class="t" x="355" y="485">module</text><rect class="b" x="465" y="430" width="90" height="80" rx="10"/><text class="t" x="510" y="464">Allocate</text><text class="t" x="510" y="485">workspace</text><rect class="b" x="620" y="430" width="90" height="80" rx="10"/><text class="t" x="665" y="464">Launch</text><text class="t" x="665" y="485">stream</text><rect class="b" x="775" y="430" width="90" height="80" rx="10"/><text class="t" x="820" y="464">Trace</text><text class="t" x="820" y="485">identity</text><rect class="c" x="930" y="430" width="185" height="80" rx="10"/><text class="t" x="1022" y="464">Guarded artifact</text><text class="t" x="1022" y="485">and tuning cache</text></g>
  <text class="n" x="640" y="558">Graph transformations remain shared until target lowering.</text><text class="n" x="640" y="579">Failure diagnostics identify the stage and emit a reproducer.</text></svg>
