<svg viewBox="2.94995 2.46143 77.912264 28.71777" fill="none" xmlns="http://www.w3.org/2000/svg">
  <!-- Fire icon -->
  <path d="M79.2321 12.6961C79.4347 13.4689 78.572 14.293 78.572 14.293C78.572 14.293 76.9992 15.2958 77.306 10.993C77.6128 6.69032 70.5651 2.46143 70.5651 2.46143C70.5651 2.46143 70.6053 2.8716 70.5632 5.708C70.5102 9.27747 68.3808 8.05374 68.3808 8.05374C66.2492 10.253 66.443 15.2195 66.443 15.2195C63.8042 17.4671 63.7117 12.794 63.7117 12.794C63.7117 12.794 58.6875 17.6808 64.0605 22.9161C64.0605 22.9161 64.8484 23.6746 63.5892 23.4332C62.6912 23.2612 62.4883 22.9151 62.4883 22.9151C62.4883 22.9151 62.6597 25.0822 68.9953 26.4386C69.1182 26.4626 71.0873 26.836 73.3114 26.4086C78.192 25.3528 79.044 23.3911 79.044 23.3911C79.044 23.3911 78.9407 23.5682 78.1309 23.6473C77.2606 23.7323 78.0077 22.9241 78.0077 22.9241C83.742 19.4562 79.0296 11.9232 79.2321 12.6961Z" fill="#FF4C1F"/>
  <path d="M77.1449 19.8332C78.2872 18.1103 77.4129 16.8261 77.4129 16.8261C75.6233 17.7119 75.0885 17.0924 74.9299 16.5903C74.8672 16.3915 74.8566 16.1804 74.893 15.9757C76.0545 9.43627 71.5631 5.90137 71.6754 6.77467C71.7095 7.03869 71.6623 7.38522 71.5792 7.74106C71.3829 8.58355 71.0078 9.37699 70.4966 10.0858C69.7926 11.0621 68.5203 13.1564 67.8277 16.307C66.8364 20.8171 63.9854 17.5515 63.9854 17.5515C63.9854 17.5515 62.3149 23.0489 69.122 26.4613C69.5229 26.5285 70.7915 26.7047 72.3209 26.5521C76.7936 24.5257 78.3996 20.5673 78.3996 20.5673C78.3996 20.5673 76.0026 21.556 77.1449 19.8332Z" fill="#FF9C45"/>
  <path d="M75.5851 18.6611C75.5858 18.6593 75.5862 18.6587 75.5862 18.6587L75.5851 18.6611Z" fill="#FFDD56"/>
  <path d="M75.5851 18.6611C75.5619 18.7183 75.0823 19.8392 73.3031 20.1241C71.4773 20.4163 72.2797 14.2892 72.2797 14.2892C67.7901 16.3366 68.6239 21.148 68.6239 21.148C68.6239 21.148 67.9066 21.8144 66.9881 21.1471C66.6761 20.9205 67.3591 25.0131 70.2929 26.5885C70.8374 26.6215 71.5174 26.6282 72.2609 26.5577C74.2807 25.206 75.3565 20.9686 75.3565 20.9686L74.43 21.5194L75.5851 18.6611Z" fill="#FFDD56"/>
  <path d="M62.6954 12.1968C62.6954 12.1968 62.4336 9.97873 63.7164 8.99973C63.9168 8.84671 64.0519 8.72262 64.1507 8.49529C64.2313 8.31058 64.3562 8.01702 64.2955 7.79726C64.1439 7.24686 66.0057 10.2918 62.6954 12.1968Z" fill="#FF4C1F"/>
  <path d="M72.2747 26.5567C73.0905 25.7316 74.1795 22.4334 74.1795 22.4334C74.1795 22.4334 73.9436 23.1091 73.0634 23.0197C71.8528 22.8964 71.189 19.7913 71.189 19.7913C71.189 19.7913 70.1815 22.431 69.9699 22.8221C69.5243 23.6458 68.7019 22.8213 68.7019 22.8213C68.4836 24.1635 70.2186 26.0874 70.7166 26.6077C71.1783 26.6203 71.708 26.611 72.2747 26.5567Z" fill="#FCFBCC"/>
  <!-- "Mojo" text — uses currentColor for light/dark mode -->
  <path d="M37.6839 29.2416L37.6839 31.1792L42.0089 31.1792L42.0089 29.38C42.0089 29.3039 42.0712 29.2416 42.1473 29.2416L44.0847 29.2416L44.0847 11.7251L42.0089 11.7251L42.0089 29.1032C42.0089 29.1793 41.9466 29.2416 41.8705 29.2416L37.6839 29.2416Z" fill="currentColor"/>
  <path d="M44.0847 8.64062L44.0847 6.5642L42.0089 6.5642L42.0089 8.64062L44.0847 8.64062Z" fill="currentColor"/>
  <path d="M33.1552 11.8232C29.4188 11.8232 26.5127 14.7296 26.5127 19.02C26.5127 23.3103 29.4188 26.2167 33.1552 26.2167C36.8917 26.2167 39.7978 23.3103 39.7978 19.02C39.7978 14.7296 36.8917 11.8232 33.1552 11.8232ZM33.1552 24.2791C30.6366 24.2791 28.5885 22.2031 28.5885 19.02C28.5885 15.8368 30.6366 13.7608 33.1552 13.7608C35.6739 13.7608 37.722 15.8368 37.722 19.02C37.722 22.2031 35.6739 24.2791 33.1552 24.2791Z" fill="currentColor"/>
  <path d="M52.8611 11.8232C49.1246 11.8232 46.2185 14.7296 46.2185 19.02C46.2185 23.3103 49.1246 26.2167 52.8611 26.2167C56.5975 26.2167 59.5036 23.3103 59.5036 19.02C59.5036 14.7296 56.5975 11.8232 52.8611 11.8232ZM52.8611 24.2791C50.3424 24.2791 48.2943 22.2031 48.2943 19.02C48.2943 15.8368 50.3424 13.7608 52.8611 13.7608C55.3797 13.7608 57.4278 15.8368 57.4278 19.02C57.4278 22.2031 55.3797 24.2791 52.8611 24.2791Z" fill="currentColor"/>
  <path d="M24.5382 8.77835H22.4624C22.3863 8.77835 22.3241 8.71607 22.3241 8.63995V6.56396H19.9715L14.0209 23.4486H13.4673L7.5167 6.56396H2.94995V25.9398H5.16413V8.77835H6.02767L12.0835 25.9398H15.4047L21.4605 8.77835H22.1857C22.2618 8.77835 22.3241 8.84062 22.3241 8.91674V25.9398H24.5382V8.77835Z" fill="currentColor"/>
</svg>
